<svg width="20" height="22" viewBox="0 0 20 22" fill="none" xmlns="http://www.w3.org/2000/svg">
<path d="M10.0022 5.35948C7.16453 5.35948 4.87563 7.87783 4.87563 11C4.87563 14.1222 7.16453 16.6405 10.0022 16.6405C12.8399 16.6405 15.1288 14.1222 15.1288 11C15.1288 7.87783 12.8399 5.35948 10.0022 5.35948ZM10.0022 14.6671C8.16843 14.6671 6.66927 13.0225 6.66927 11C6.66927 8.97746 8.16397 7.33292 10.0022 7.33292C11.8405 7.33292 13.3352 8.97746 13.3352 11C13.3352 13.0225 11.836 14.6671 10.0022 14.6671ZM16.5343 5.12875C16.5343 5.8602 15.9989 6.44438 15.3385 6.44438C14.6737 6.44438 14.1428 5.85529 14.1428 5.12875C14.1428 4.40221 14.6782 3.81312 15.3385 3.81312C15.9989 3.81312 16.5343 4.40221 16.5343 5.12875ZM19.9297 6.46402C19.8539 4.70166 19.488 3.14058 18.3146 1.8544C17.1456 0.568225 15.7267 0.165681 14.1249 0.0773179C12.4741 -0.0257726 7.52593 -0.0257726 5.87507 0.0773179C4.27775 0.160772 2.8589 0.563316 1.68544 1.84949C0.511991 3.13567 0.150586 4.69675 0.0702733 6.45911C-0.0234244 8.27547 -0.0234244 13.7196 0.0702733 15.536C0.146124 17.2983 0.511991 18.8594 1.68544 20.1456C2.8589 21.4318 4.27328 21.8343 5.87507 21.9227C7.52593 22.0258 12.4741 22.0258 14.1249 21.9227C15.7267 21.8392 17.1456 21.4367 18.3146 20.1456C19.4835 18.8594 19.8494 17.2983 19.9297 15.536C20.0234 13.7196 20.0234 8.28037 19.9297 6.46402ZM17.797 17.4849C17.449 18.4471 16.7752 19.1883 15.8963 19.5761C14.58 20.1505 11.4568 20.018 10.0022 20.018C8.54769 20.018 5.41997 20.1456 4.1082 19.5761C3.23369 19.1932 2.55996 18.452 2.20747 17.4849C1.68544 16.0367 1.80591 12.6004 1.80591 11C1.80591 9.39964 1.68991 5.95838 2.20747 4.51512C2.55549 3.55294 3.22922 2.81167 4.1082 2.42385C5.42443 1.84949 8.54769 1.98204 10.0022 1.98204C11.4568 1.98204 14.5845 1.8544 15.8963 2.42385C16.7708 2.80676 17.4445 3.54803 17.797 4.51512C18.319 5.96329 18.1985 9.39964 18.1985 11C18.1985 12.6004 18.319 16.0416 17.797 17.4849Z" fill="white"/>
</svg>
