<svg width="34" height="41" viewBox="0 0 34 41" fill="none" xmlns="http://www.w3.org/2000/svg">
<path d="M26.5967 10.1448C26.5492 10.1448 26.5016 10.1448 26.4541 10.1448C25.3287 10.1289 24.2825 9.74852 23.173 9.35226C22.5231 9.11449 21.8573 8.87673 21.1441 8.68652C20.9222 9.78023 21.9207 10.7313 23.4741 10.7154C24.0131 10.7154 24.2033 10.5569 24.6629 10.5569C24.9482 10.5569 25.1543 10.763 25.1543 11.0166C25.1543 11.3336 24.9324 11.5714 24.4727 11.5714C24.2825 11.5714 24.0289 11.5238 23.8704 11.4287C23.379 11.4287 23.2205 11.714 23.173 12.031C23.0462 12.1103 22.9669 12.2529 22.9669 12.4115V12.7285C22.9669 12.7285 23.2998 12.5224 23.6485 12.5224C23.6643 12.5224 24.2508 12.5224 24.2508 12.5224C24.1082 12.6968 23.8862 12.8236 23.6485 12.8394C23.4266 13.0772 23.3632 13.4101 23.5217 13.7112C23.4583 13.838 23.4583 13.9965 23.5375 14.1392L23.696 14.4087C23.696 14.4087 23.8862 14.0599 24.2033 13.8697C24.3618 13.7746 24.758 13.5527 24.758 13.5527C24.6312 13.8856 24.758 14.2184 25.0434 14.3928C25.0592 14.5355 25.1385 14.6623 25.2653 14.7257L25.5347 14.8842C25.5347 14.8842 25.5506 14.4245 25.7249 14.1233C25.8993 13.8222 26.3431 13.0613 26.3431 13.0613H27.0564V11.5872C27.0564 11.1434 27.3259 10.7154 27.7697 10.0655C27.3893 10.1289 26.993 10.1448 26.5967 10.1448Z" fill="white"/>
<path d="M30.3543 7.2121C29.847 7.2121 29.4983 7.1487 29.1179 6.84753L28.7533 6.49882L30.2909 6.48297C30.2909 6.48297 32.9538 6.34031 33.7146 4.73938C33.9524 4.24801 34.0475 3.69323 33.9682 3.17015C33.889 2.63123 33.6512 2.124 33.2708 1.74359C32.9062 1.34732 32.3198 0.935196 31.2736 0.919345C28.6582 0.887643 26.8829 2.72633 23.7762 2.90069C21.8424 3.01165 18.7832 2.9958 16.2946 2.97995C16.0886 2.97995 15.9459 2.82144 15.9618 2.61538C15.9776 2.45687 16.1044 2.31421 16.2788 2.31421L23.4433 2.26666C24.5687 2.26666 25.4722 1.23636 25.4722 0C25.1711 0.332866 24.8065 0.459672 24.4895 0.507225C24.5212 0.348717 24.537 0.174359 24.537 0C24.1091 0.396269 23.2531 0.523076 22.9044 0.523076H22.1911C21.6205 0.523076 21.0974 0.792539 20.7328 1.20466C20.7328 1.20466 16.3105 1.20466 16.1995 1.20466C15.2643 1.20466 14.8681 1.9972 14.8205 2.48857C14.7413 3.21771 15.1534 4.0895 16.2629 4.1529C18.4028 4.16875 23.4433 4.16875 24.4419 4.0578C25.7892 3.91514 26.6769 3.58227 27.4536 3.34451C28.4997 3.0275 29.7519 2.20326 31.2419 2.23496C32.3356 2.26666 32.5734 3.0909 32.6051 3.34451C32.6368 3.59813 32.5892 3.86759 32.4783 4.10535C31.9393 5.19905 29.4508 5.34171 26.8988 5.1515C22.6032 4.83449 19.1795 4.45407 14.8839 5.16735C14.3133 5.26246 13.7744 5.42096 13.2671 5.61117C13.2988 6.055 13.2513 6.70488 12.9343 7.44986L12.8075 7.76688L12.4904 7.62422C12.4587 7.60837 12.427 7.59252 12.3953 7.57667C12.1893 7.89369 11.9674 8.16315 11.7296 8.38506L11.5552 8.54357L11.3492 8.43261C11.2382 8.36921 11.1273 8.33751 11.0163 8.33751C10.7627 8.33751 10.5249 8.51187 10.414 8.76548C9.92262 9.95429 9.5105 9.98599 8.40094 10.0811C8.33754 10.0811 8.06808 10.1128 8.06808 10.1128C8.06808 10.1128 7.6084 9.81163 7.52915 9.76408C6.16598 9.71652 4.4224 9.43121 3.67741 9.19345C3.28114 9.06664 2.99583 8.65452 2.99583 8.2107C2.99583 8.1473 2.99583 8.09975 3.01168 8.03634C2.90072 7.73518 2.56786 7.56082 2.26669 7.60837C2.13989 7.48156 1.96553 7.43401 1.79117 7.48156L1.49001 7.57667C1.49001 7.57667 1.85457 7.90954 1.94968 8.19485L2.09234 8.62282C1.88628 8.54357 1.71192 8.38506 1.58511 8.19485C1.28395 8.05219 0.919378 8.09975 0.681617 8.35336C0.507258 8.30581 0.3329 8.35336 0.206094 8.49601L0.0158844 8.76548C0.0158844 8.76548 0.412154 8.81303 0.729169 9.06664L1.18884 9.44706C0.855975 9.46291 0.570661 9.70067 0.491408 10.0335C0.317049 10.0652 0.190243 10.2079 0.158541 10.3823L0.0951383 10.6993C0.0951383 10.6993 0.776721 10.5566 1.14129 10.6359L2.25084 10.9687C2.25084 10.9687 3.40795 10.9687 3.82007 10.9687C4.27974 10.9687 4.66016 11.3492 4.66016 11.8088C5.26249 12.0624 6.40375 12.5063 7.73521 13.6792C8.02052 13.4415 8.25829 13.1878 8.4802 12.9025C8.82891 12.9818 9.19348 13.0452 9.43124 13.061C10.3981 12.5063 11.8089 11.1272 12.9818 10.192C13.7427 9.58972 14.8205 8.86058 16.2154 8.41676C16.3739 8.78133 16.6433 9.06664 16.8811 9.241C17.6578 8.70208 19.1795 7.83028 21.2242 8.32166C23.2214 8.82888 24.7431 9.77993 26.5976 9.79578C27.5645 9.79578 28.4839 9.65312 29.3398 9.36781C29.7202 9.25685 29.8787 9.19345 30.3701 9.19345C30.8298 9.19345 31.2102 9.57387 31.2102 10.0335C31.2102 10.4932 30.8298 10.8736 30.3701 10.8736C30.0372 10.8736 29.7519 10.6834 29.6093 10.414C29.2289 10.2079 28.8801 10.303 28.6741 10.5249C28.4839 10.5091 28.3095 10.62 28.2303 10.7785L28.0876 11.0638C28.0876 11.0638 28.5473 11.0638 28.7533 11.1748L29.2447 11.4443C29.1496 11.476 29.0545 11.4918 28.9594 11.4918C28.8484 11.4918 28.7216 11.4601 28.6265 11.4284C28.2461 11.4918 27.9449 11.8088 27.9449 12.2051V12.5855C27.8023 12.6648 27.7072 12.8233 27.7072 12.9976V13.3305C27.7072 13.3305 28.2144 13.061 28.7375 13.061H31.5906L32.2405 11.6345H32.8745C32.8745 11.6345 32.8745 10.7627 32.8745 10.7468C32.8745 10.1128 33.3659 9.60557 33.9999 9.54217C33.6988 7.84613 32.193 7.2121 30.3543 7.2121Z" fill="white"/>
<path d="M12.8898 5.26287C13.3337 5.12022 13.6665 4.91416 13.7775 4.62884C14.047 3.94726 14.0628 3.32908 13.8567 2.56824C13.4129 2.31463 12.9215 2.26708 12.6204 2.26708C12.4619 2.26708 12.3668 2.28293 12.3668 2.28293C12.1132 1.49039 11.0987 0.840508 10.433 0.571045C10.433 0.571045 10.3854 0.713702 10.2269 0.88806C10.1794 0.87221 10.1477 0.87221 10.1318 0.87221C9.8782 0.808806 9.62459 0.777105 9.38683 0.777105C8.8162 0.777105 8.32482 0.951463 7.9127 1.18923C7.89685 1.17337 7.26282 0.745403 6.53369 0.745403C6.51784 0.745403 6.48613 0.745403 6.47028 0.745403C5.93136 1.31603 5.66189 1.87081 5.56679 2.59994C5.53509 2.90111 5.7253 3.24983 6.05816 3.58269L6.08987 3.59854C5.89966 4.23257 5.64604 4.7081 5.26562 5.26287C5.39243 5.37383 5.55094 5.45308 5.7253 5.51649C5.7253 5.94446 5.7887 6.38828 5.93136 6.78455C6.59709 6.78455 6.97751 7.32347 6.91411 7.8941C6.80315 9.03536 7.02506 9.09876 8.11876 9.81205C9.38683 9.70109 9.64044 9.73279 10.0684 8.67079C10.2269 8.29037 10.5756 8.03676 10.9719 8.03676C11.1304 8.03676 11.2889 8.08431 11.4633 8.16356C11.7644 7.87825 12.0181 7.54538 12.2241 7.18082C12.3509 7.22837 12.4777 7.27592 12.6045 7.33932C12.9533 6.53094 12.985 5.78595 12.8898 5.26287ZM7.35793 3.24983V3.20227V3.15472L7.38963 3.18642L7.99196 3.47174C7.94441 3.50344 7.89685 3.53514 7.86515 3.58269C7.7542 3.75705 7.8176 3.97896 7.99196 4.07407C8.05536 4.10577 8.11876 4.12162 8.18217 4.12162C8.30897 4.12162 8.43578 4.05821 8.49918 3.94726C8.54674 3.86801 8.54674 3.8046 8.54674 3.72535C8.54674 3.72535 8.95886 3.89971 8.8796 4.39108C8.83205 4.7715 8.56259 5.19947 8.56259 5.19947C8.56259 5.19947 8.37238 5.10437 8.49918 4.7715C8.64184 4.37523 8.57844 4.35938 8.57844 4.35938C8.57844 4.35938 8.49918 4.37523 8.38823 4.37523C8.22972 4.37523 8.02366 4.35938 7.83345 4.24842L7.80175 4.23257C7.34208 3.91556 7.35793 3.31323 7.35793 3.24983ZM9.75139 7.24422C9.16492 7.51368 9.48193 8.24282 9.26002 8.60739C9.13321 8.81345 8.97471 8.90855 8.73694 8.90855C8.62599 8.90855 8.49918 8.8927 8.35653 8.861C7.89685 8.75004 7.69079 8.57568 7.67494 8.21112C7.65909 7.799 8.27727 7.30762 7.89685 6.78455C7.56399 6.34073 7.61154 6.10296 7.61154 6.10296C7.61154 6.10296 7.72249 6.21392 7.96026 6.34073C7.99196 6.35658 8.15047 6.43583 8.30897 6.48338C8.37238 6.49923 8.43578 6.51508 8.51503 6.51508C8.67354 6.51508 8.83205 6.45168 8.9113 6.22977C8.95886 6.10296 8.86375 6.00786 8.76865 5.94446C8.72109 5.91275 8.54674 5.8018 8.49918 5.75425C8.40408 5.62744 8.49918 5.45308 8.49918 5.45308C8.49918 5.45308 8.72109 5.75425 9.13321 5.84935C9.22832 5.88105 9.32342 5.88105 9.40268 5.88105C9.65629 5.88105 9.83065 5.78595 9.83065 5.78595C9.83065 5.78595 9.8465 5.97616 9.68799 6.03956C9.62459 6.07126 9.46608 6.07126 9.40268 6.08711C9.29172 6.10296 9.16492 6.13467 9.13321 6.27732C9.06981 6.59434 9.30757 6.72114 9.52948 6.7687C9.67214 6.8004 9.8148 6.81625 9.8782 6.81625C9.89405 6.81625 9.89405 6.81625 9.9099 6.81625C10.1794 6.8004 10.322 6.7687 10.322 6.7687C10.322 6.7687 10.2586 7.00646 9.75139 7.24422ZM11.9229 4.32768L11.9071 4.35938C11.8754 4.42278 11.5901 4.96171 11.0195 4.99341H10.9878H10.9719C10.6232 4.99341 10.2903 4.7398 10.2903 4.7398C10.2745 4.7398 10.2269 4.75565 10.1635 5.13607C10.116 5.46893 9.9099 5.46893 9.89405 5.46893C9.89405 5.46893 9.86235 4.96171 10.005 4.61299C10.1635 4.23257 10.4964 4.20087 10.5915 4.20087C10.6073 4.20087 10.6232 4.20087 10.6232 4.20087C10.5756 4.26427 10.5439 4.34353 10.5598 4.42278C10.5598 4.62884 10.7341 4.7715 10.9244 4.7715H10.9402C11.1463 4.7715 11.3048 4.59714 11.3048 4.40693C11.3048 4.34353 11.2889 4.29598 11.2572 4.24842L11.9229 4.28013H11.9705L11.9229 4.32768Z" fill="white"/>
<path d="M7.3838 30.5761C8.82622 30.6078 10.0467 31.3527 10.6015 32.5891C11.4891 33.0963 13.0267 33.9998 15.6738 34.8716C17.3698 34.935 19.684 34.9192 22.6956 34.6973C22.5371 34.2534 22.5213 33.7304 22.6798 33.0171C22.7432 32.7318 22.6956 32.4623 22.5371 32.2562C22.3945 32.0502 22.1726 31.9392 21.9031 31.9075L21.6178 31.8758L21.5068 31.6064C21.2849 31.0516 21.2215 30.5285 21.2057 30.0688C20.4607 30.0371 17.6392 29.8945 15.4043 29.0227C15.119 29.3714 14.8654 29.5775 14.7861 29.625C12.6463 29.1178 10.5223 28.4204 9.00058 27.5644C8.81037 27.6278 8.62016 27.6595 8.42995 27.6595C7.39965 27.6595 6.54371 26.867 6.46445 25.8525C6.4486 25.7733 6.4486 25.3929 6.46445 25.2977C6.27424 24.7747 5.68776 24.4418 5.14884 24.5369C4.94278 24.2992 4.60991 24.2199 4.30875 24.3309L3.78567 24.5052C3.78567 24.5052 4.43555 25.1075 4.60991 25.5989L4.87938 26.3439C4.51481 26.2012 4.19779 25.9318 3.99173 25.5989C3.46866 25.3453 2.89803 25.3612 2.47006 25.805C2.16889 25.7099 1.83603 25.805 1.64582 26.0427L1.28125 26.4707C1.28125 26.4707 1.97868 26.55 2.53346 27.0096C2.54931 27.0096 3.34185 27.6912 3.34185 27.6912C2.75537 27.7229 2.2323 28.135 2.08964 28.7374C1.78847 28.8008 1.55071 29.0544 1.48731 29.3555L1.37635 29.8945C1.37635 29.8945 2.96143 29.6884 3.57961 29.8152L5.76702 30.6078C5.75117 30.5761 6.65466 30.5761 7.3838 30.5761Z" fill="white"/>
<path d="M26.3296 31.5745C26.0919 31.7647 25.7431 31.8122 25.331 31.7171C25.2676 31.7013 25.2201 31.6854 25.1725 31.6696C25.5688 32.2877 25.2835 32.8901 25.0616 33.3339C24.9506 33.54 24.8555 33.746 24.8555 33.8887C24.8714 34.1581 24.9189 34.3484 25.5688 34.5069C26.2187 34.6654 26.3613 34.5386 26.504 34.3008C26.5832 34.1898 26.5832 33.9521 26.5991 33.7143C26.6149 33.2229 26.6466 32.5572 27.3124 32.2085C27.2648 32.1926 27.2014 32.1926 27.138 32.1768C26.7259 32.0658 26.4564 31.8598 26.3296 31.5745Z" fill="white"/>
<path d="M32.9854 28.595C33.3024 27.8024 33.3183 27.0733 33.0805 26.2015C32.3514 25.7735 31.4162 25.8528 31.3211 25.8528C30.7505 24.9651 29.9896 24.2201 28.6423 23.8714C28.6106 23.8714 28.0241 23.7129 27.9924 23.7129C26.6293 23.3801 25.6148 23.6812 24.6955 24.2043C24.6004 24.1409 23.8237 23.6495 22.9836 23.6812C22.3496 24.3311 22.0326 24.981 21.9374 25.8369C21.9057 26.1222 22.1118 26.5185 22.3971 26.8514C21.4302 27.8341 21.1925 28.6901 21.1291 29.4351C21.4144 29.4509 21.6997 29.5143 21.6997 29.5143C21.668 30.1166 21.6838 30.7348 21.9533 31.4164C22.8409 31.5274 23.3165 32.304 23.1421 33.1124C22.7617 34.8402 23.475 35.2206 25.0917 36.3618C27.0572 36.1082 27.8656 36.1082 28.3412 34.4122C28.5631 33.6197 29.3556 33.1441 30.1798 33.477C31.86 32.1138 32.1612 30.4654 32.2246 30.0691C32.0185 29.8947 31.8759 29.657 31.8283 29.3875C32.3514 29.2131 32.8586 28.9278 32.9854 28.595ZM24.9174 28.3096C24.2675 27.9134 24.2992 27.105 24.2992 27.0099V26.9465V26.8831L24.3468 26.9148L25.1393 27.2952C25.0759 27.3427 25.0125 27.3903 24.9808 27.4537C24.8381 27.6756 24.9174 27.9768 25.1552 28.1194C25.3929 28.2621 25.6941 28.1828 25.8209 27.9451C25.8843 27.85 25.8843 27.739 25.8843 27.6439C25.8843 27.6439 26.4232 27.8817 26.3281 28.5316C26.2489 29.0388 25.9001 29.6094 25.9001 29.6094C25.9001 29.6094 25.6465 29.4668 25.805 29.0388C25.9952 28.4999 25.916 28.4999 25.916 28.4999C25.916 28.4999 25.3454 28.5791 24.9332 28.3413L24.9174 28.3096ZM27.5328 32.4784C26.6768 32.8747 27.1365 33.9525 26.8036 34.4756C26.5183 34.9353 26.1379 35.0145 25.4722 34.8402C24.7906 34.6658 24.5053 34.428 24.4736 33.8891C24.4419 33.2709 25.3771 32.5577 24.8064 31.7968C24.3151 31.1311 24.3785 30.7982 24.3785 30.7982C24.3785 30.7982 24.5528 30.9567 24.8857 31.1469C24.9332 31.1786 25.1552 31.2896 25.4088 31.353C25.7416 31.4322 26.1379 31.4322 26.2806 30.9884C26.344 30.7982 26.2013 30.6556 26.0745 30.5605C26.0111 30.5129 25.9001 30.4495 25.8367 30.3702C25.6941 30.18 25.8367 29.9423 25.8367 29.9423C25.8367 29.9423 26.0111 30.291 26.5976 30.4337C27.1999 30.5922 27.5169 30.3544 27.5169 30.3544C27.5169 30.3544 27.5328 30.6397 27.3109 30.7348C27.2316 30.7665 27.1048 30.7665 27.0097 30.7824C26.8512 30.8141 26.661 30.8616 26.6134 31.0518C26.5183 31.5115 26.867 31.7017 27.1999 31.7968C27.4535 31.8602 27.6913 31.8602 27.7547 31.8602C28.1509 31.8444 28.3729 31.7968 28.3729 31.7968C28.3729 31.7968 28.2936 32.1297 27.5328 32.4784ZM30.3542 28.4682L30.3225 28.5157C30.2749 28.6108 29.8945 29.3241 29.1337 29.3558H29.0861C28.6106 29.3716 28.1509 29.0229 28.1509 29.0229C28.1509 29.0229 28.0717 28.9912 27.9766 29.546C27.9132 29.9898 27.612 29.9898 27.612 29.9898C27.612 29.9898 27.5803 29.3241 27.7705 28.8486C28.0083 28.2462 28.5948 28.2938 28.5948 28.2938C28.5314 28.373 28.4997 28.4682 28.4997 28.5791C28.4997 28.8486 28.7216 29.0546 28.991 29.0546C29.2605 29.0546 29.4824 28.8327 29.4666 28.5633C29.4666 28.484 29.4349 28.4206 29.4032 28.3572L30.2908 28.4048H30.3542V28.4682Z" fill="white"/>
<path d="M8.9242 6.62549C8.76569 6.75229 8.52793 6.784 8.24261 6.72059C8.21091 6.70474 8.16336 6.70474 8.13166 6.68889C8.40112 7.11686 8.21091 7.51313 8.0524 7.8143C7.989 7.95695 7.90974 8.09961 7.90974 8.19471C7.9256 8.36907 7.9573 8.49588 8.40112 8.60684C8.84494 8.71779 8.94005 8.62269 9.03515 8.46418C9.0827 8.38492 9.0827 8.22642 9.09855 8.06791C9.11441 7.73504 9.13026 7.29122 9.57408 7.03761C9.54238 7.03761 9.49482 7.02176 9.46312 7.02176C9.19366 6.95835 9.00345 6.8157 8.9242 6.62549Z" fill="white"/>
<path d="M27.1358 21.2876C28.9111 21.0974 31.0351 21.8741 32.319 23.4116C32.6678 23.5225 33.175 23.6811 33.7456 23.8554C33.7773 23.4116 33.7932 22.9836 33.7932 22.5239V19.5916C31.1936 19.6233 28.9111 20.2097 27.1358 21.2876Z" fill="white"/>
<path d="M16.692 18.0859C16.4701 18.2603 16.1531 18.3078 15.7885 18.1969C15.741 18.181 15.6934 18.1652 15.6459 18.1493C16.0104 18.72 15.7251 19.2747 15.5191 19.671C15.4239 19.8612 15.3288 20.0514 15.3288 20.1782C15.3288 20.416 15.3764 20.5904 15.9629 20.7489C16.5494 20.9074 16.6762 20.7806 16.803 20.5745C16.8664 20.4636 16.8822 20.2416 16.8981 20.0356C16.9298 19.5918 16.9615 18.9736 17.5479 18.6566C17.5004 18.6407 17.4528 18.6407 17.4053 18.6249C17.0407 18.5456 16.803 18.3554 16.692 18.0859Z" fill="white"/>
<path d="M21.7795 15.4062L21.8588 15.3269C22.4611 14.6453 22.6038 13.7102 22.6513 13.2663C22.4928 13.2822 22.2709 13.2822 22.049 13.2505L21.8905 13.2188L21.8746 13.0603C21.8746 13.0444 21.7161 11.9983 20.9711 11.1899C20.7175 11.5703 20.242 11.8081 19.6397 11.6337C19.0532 11.4435 18.7045 10.8253 18.863 10.223C18.8788 10.1279 18.9105 10.0486 18.9581 9.96937C17.7376 9.98522 16.9609 10.6668 16.945 10.6827L16.8499 10.7778L16.7231 10.7302C16.6914 10.7144 15.9781 10.4449 15.6611 9.87427C15.3758 10.112 14.9003 10.6034 14.6942 11.2691L14.6467 11.4276H14.4723C14.0126 11.4118 13.759 11.5227 13.2677 11.7605C13.6639 12.6482 13.442 13.5199 13.0774 14.043C12.7763 14.4868 12.38 14.7563 11.9679 14.8039C12.1898 15.4537 12.5861 15.7866 12.6019 15.7866L12.7446 15.8976L12.6495 16.0561C12.1581 16.9596 12.1581 17.7838 12.1898 18.1801C12.7446 18.0374 13.1092 18.0533 13.1092 18.0533C13.1092 18.0533 12.7129 19.0677 13.3311 20.0188C13.3628 20.0663 13.3945 20.1297 13.4262 20.1931C13.8066 20.9223 13.8066 21.7306 13.7432 22.4598C14.1236 22.4598 14.4723 22.1428 14.4723 22.1428L14.5199 22.4915C14.615 23.1731 14.8369 23.5852 15.3441 24.029C15.4709 23.5852 15.7879 22.9036 16.4695 22.8719C16.8341 22.856 17.1194 23.0621 17.2779 23.2048C18.3082 22.539 18.752 21.5721 19.0532 20.6369L19.1324 20.3992C19.1324 20.3992 19.6238 20.5577 19.9091 20.7637C20.8919 19.7493 20.9711 17.6253 20.9711 17.6253C20.9711 17.6253 21.4467 17.7521 21.7954 17.9265C22.0173 17.1181 22.0173 16.4523 21.8112 15.4696L21.7795 15.4062ZM15.0746 14.0747V14.0272V13.9796L15.1222 14.0113L15.7879 14.3442C15.7404 14.3759 15.6928 14.4234 15.6611 14.471C15.5502 14.6612 15.5977 14.9148 15.8038 15.0416C15.994 15.1526 16.2476 15.0892 16.3586 14.899C16.4061 14.8197 16.422 14.7246 16.4061 14.6453C16.4061 14.6453 16.8499 14.8514 16.7707 15.4062C16.7073 15.8342 16.4061 16.3255 16.4061 16.3255C16.4061 16.3255 16.2001 16.2146 16.3427 15.85C16.5012 15.4062 16.4378 15.3903 16.4378 15.3903C16.4378 15.3903 15.9623 15.4537 15.6136 15.2477L15.5819 15.2318C15.0429 14.8356 15.0746 14.154 15.0746 14.0747ZM17.7693 18.9409C16.9926 19.3055 17.3889 20.2882 17.0877 20.7637C16.8341 21.1759 16.4854 21.2551 15.883 21.0808C15.2807 20.9223 15.0112 20.6845 14.9954 20.1931C14.9795 19.6225 15.8196 18.9726 15.3283 18.2752C14.9003 17.6728 14.9637 17.3558 14.9637 17.3558C14.9637 17.3558 15.1222 17.4985 15.4234 17.6887C15.4709 17.7204 15.6611 17.8314 15.883 17.8789C16.1842 17.9582 16.5329 17.9582 16.6756 17.546C16.739 17.3717 16.6122 17.2449 16.5012 17.1498C16.4378 17.1022 16.3427 17.0388 16.2952 16.9754C16.1683 16.8011 16.2952 16.5791 16.2952 16.5791C16.2952 16.5791 16.4378 16.8962 16.9767 17.0388C17.5157 17.1815 17.801 16.9754 17.801 16.9754C17.801 16.9754 17.8168 17.229 17.6108 17.3241C17.5315 17.3558 17.4206 17.3558 17.3413 17.3717C17.1986 17.3875 17.0243 17.4351 16.9926 17.6253C16.9133 18.0374 17.2145 18.2276 17.5157 18.3069C17.7376 18.3703 17.9595 18.3703 18.0229 18.3703C18.3716 18.3544 18.5777 18.3069 18.5777 18.3069C18.5777 18.3069 18.4509 18.6239 17.7693 18.9409ZM20.131 15.3586L20.1152 15.4062C20.0835 15.4854 19.7506 16.0878 19.1166 16.1036H19.069C18.6728 16.1036 18.2924 15.8025 18.2924 15.8025C18.2924 15.8025 18.2289 15.7708 18.1497 16.2463C18.0863 16.6267 17.8485 16.6267 17.8485 16.6267C17.8485 16.6267 17.8327 16.0561 17.9912 15.6598C18.1972 15.1526 18.6886 15.2001 18.6886 15.2001C18.6411 15.2635 18.6094 15.3586 18.6094 15.4379C18.6094 15.6598 18.7996 15.85 19.0215 15.85C19.2592 15.85 19.4336 15.6598 19.4336 15.4379C19.4336 15.3745 19.4178 15.3111 19.3861 15.2635L20.1152 15.3111H20.1627L20.131 15.3586Z" fill="white"/>
<path d="M33.778 19.1324C33.778 18.1496 33.778 15.1221 33.778 14.7417C30.3859 14.5832 25.8051 15.1221 22.3337 15.9939C22.5557 17.4839 22.0484 18.5934 22.0484 18.5934L21.5888 18.3715C21.5095 18.324 21.4302 18.2923 21.3668 18.2764C21.1766 20.337 19.9561 21.399 19.9561 21.399C19.9561 21.399 19.7025 21.1771 19.3696 21.0503C19.0526 21.9538 18.5613 22.9207 17.4834 23.6181L17.1981 23.8083L16.9445 23.5864C16.8494 23.5072 16.675 23.3645 16.4373 23.3645C16.0093 23.3645 15.8191 23.8242 15.7081 24.2046L15.5496 24.8069C15.5496 24.8069 15.4069 24.7277 14.9948 24.4107C14.5827 24.0936 14.2181 23.523 14.0755 22.889C13.6317 23.0158 13.1878 22.9682 13.1878 22.9682C13.1878 22.9682 13.3463 21.9855 13.2671 21.3356C11.0797 21.2564 8.00464 20.8442 6.13425 20.0993C5.50022 20.4955 4.77108 20.0517 4.61257 19.9407C4.34311 19.6871 4.16875 19.3226 4.16875 18.9263C4.16875 18.847 4.1846 18.7678 4.1846 18.6885C4.0261 18.2606 3.56642 18.0069 3.1226 18.0704C2.94824 17.8801 2.69463 17.8167 2.45687 17.896L2.0289 18.0387C2.0289 18.0387 2.55197 18.5142 2.67878 18.9104L2.88484 19.5128C2.58368 19.386 2.34591 19.1799 2.17156 18.9104C1.74358 18.7044 1.28391 18.7202 0.951046 19.0848C0.713285 19.0055 0.443822 19.0848 0.285314 19.275L0 19.6079C0 19.6079 0.554777 19.6713 0.998599 20.0358C1.01445 20.0358 1.64848 20.5748 1.64848 20.5748C1.17296 20.6065 0.760837 20.9393 0.649882 21.4149C0.41212 21.4783 0.221911 21.6685 0.174359 21.9062L0.0951046 22.3501C0.0951046 22.3501 1.36317 22.1757 1.87039 22.2867L3.56642 22.9207C3.56642 22.9207 5.23075 22.9207 5.45267 22.9207C6.38786 22.9207 7.1804 23.5072 7.33891 24.4265C7.33891 24.4265 9.2093 24.5375 10.9687 25.3459C11.8881 25.7897 12.9501 26.4871 13.9962 27.5491C14.3449 27.2796 14.7095 26.8041 14.979 26.4396C16.247 26.7566 16.8335 26.8834 17.4517 26.9626C18.4027 26.3286 19.7342 24.7752 20.8438 23.7449C21.2876 23.3328 21.8424 22.8731 22.5081 22.4293C22.8568 22.3659 23.6335 22.3342 24.6162 22.778C24.9016 22.461 25.5039 21.8745 25.5039 21.8745C27.4852 20.1785 30.3859 19.1958 33.778 19.1324Z" fill="white"/>
<path d="M6.76896 9.11355C6.5629 8.78068 6.54705 8.36856 6.5946 7.82964C6.61045 7.62358 6.54705 7.43337 6.43609 7.29071C6.30929 7.1639 6.15078 7.08465 5.94472 7.08465H5.70696L5.6277 6.86274C5.5009 6.51402 5.43749 6.11775 5.40579 5.70563C4.91442 5.45202 4.72421 5.27766 4.39134 5.08745C4.42304 4.89724 4.42304 4.70704 4.42304 4.51683C4.35964 4.53268 4.29624 4.53268 4.21698 4.53268C3.61465 4.53268 3.13913 4.0413 3.13913 3.45482C3.13913 3.13781 3.26594 2.86835 3.472 2.66229C3.61465 2.09166 3.23424 1.86975 3.23424 1.86975C3.25009 1.67954 3.15498 1.53688 2.99647 1.41008C2.99647 1.41008 2.82212 1.26742 2.71116 1.21987C2.71116 1.21987 2.69531 1.74294 2.5368 2.02825C2.37829 2.31357 2.29904 2.45623 2.29904 2.45623C2.25149 2.36112 2.21979 2.25017 2.21979 2.13921C2.21979 2.0124 2.25149 1.90145 2.29904 1.80634C2.28319 1.36252 2.09298 1.18816 1.76011 1.20401C1.68086 1.02966 1.5065 0.918701 1.33214 0.918701H0.999277C0.999277 0.918701 1.25289 1.36252 1.25289 1.69539C1.25289 1.71124 1.25289 1.72709 1.25289 1.74294C1.09438 1.41008 0.872471 1.20401 0.603008 1.20401H0.270142C0.270142 1.20401 0.523754 1.64784 0.523754 1.9807C0.523754 2.31357 0.523754 4.61193 0.523754 4.61193C0.904173 4.80214 1.5382 5.11916 1.71256 5.21426C1.95032 5.34107 2.09298 5.59468 2.09298 5.87999C2.09298 6.02265 2.06128 6.14946 1.99788 6.26041C2.48925 6.70423 4.04263 8.21006 5.86547 9.30376C6.26173 9.35131 6.67385 9.39886 7.05427 9.41471C6.94332 9.33546 6.84821 9.24036 6.76896 9.11355Z" fill="white"/>
<path d="M13.0119 20.4318C12.9802 20.3842 12.9485 20.3208 12.9168 20.2733C12.6791 19.8453 12.4413 19.4015 12.5364 18.5931C12.4572 18.6089 12.3779 18.6248 12.2828 18.6406L11.7756 18.7675L11.728 18.2444C11.6963 17.8957 11.6805 17.2616 11.9341 16.5325C11.4427 16.4849 9.71499 16.263 8.30427 15.3912C8.12991 15.6131 8.08236 15.7083 7.92385 15.8351C6.81429 15.5497 5.9108 15.2169 5.24507 14.7731C5.10241 14.9474 4.8805 15.0584 4.62689 15.0584C4.18307 15.0584 3.8185 14.6938 3.8185 14.25C3.8185 13.9488 3.97701 13.6952 4.21477 13.5525C4.30987 12.9027 3.86605 12.6491 3.86605 12.6491C3.89775 12.3954 3.7551 12.2211 3.54904 12.0309C3.54904 12.0309 3.31127 11.8407 3.16862 11.7773C3.16862 11.7773 3.13692 12.4747 2.93086 12.8551C2.7248 13.2355 2.59799 13.4257 2.59799 13.4257C2.53459 13.2989 2.50288 13.1563 2.50288 13.0136C2.50288 12.8551 2.55044 12.6966 2.61384 12.5698C2.59799 11.9833 2.29682 11.7456 1.86885 11.7614C1.77375 11.5395 1.53599 11.381 1.29823 11.3968H0.854404C0.854404 11.3968 1.18727 11.9833 1.18727 12.4271C1.18727 12.4747 1.17142 12.5857 1.15557 12.7125C1.04461 12.5222 0.838553 12.4113 0.616643 12.4113H0.172821C0.172821 12.4113 0.505687 13.2514 0.505687 13.7111C0.505687 14.139 0.505687 16.1996 0.505687 16.3423L4.15136 17.5152C4.69029 17.6896 5.08656 18.1968 5.08656 18.7992C5.08656 18.8309 5.08656 18.8467 5.08656 18.8784C5.70474 19.2271 6.76674 19.6551 8.58958 20.3208C9.77839 20.5744 11.3635 20.8122 13.2022 20.8756C13.1546 20.7488 13.0912 20.5903 13.0119 20.4318Z" fill="white"/>
<path d="M25.4726 36.7898C25.3617 36.8057 24.9654 36.8533 24.9654 36.8533C24.9654 36.8533 24.6325 36.6155 24.5374 36.5521C23.84 36.0607 23.2693 35.6644 22.9206 35.1414C20.7966 35.2999 19.0055 35.3633 17.4997 35.3633C14.7416 35.3633 12.9663 35.1414 11.936 34.9512C11.7458 35.0146 11.5398 35.0621 11.3179 35.0621C10.3193 35.0621 9.49503 34.2537 9.49503 33.2393C9.49503 33.0491 9.52673 32.8747 9.57428 32.7003C9.43162 32.1773 8.8927 31.7969 8.35377 31.8444C8.16356 31.6066 7.84654 31.4957 7.56123 31.5591L7.03816 31.6859C7.03816 31.6859 7.60878 32.3358 7.73559 32.8272L7.83069 33.1917C7.51368 33.0015 7.26007 32.7162 7.10156 32.3833C6.62604 32.0663 6.05541 32.0188 5.59574 32.3992C5.31042 32.2724 4.99341 32.3199 4.75564 32.526L4.35938 32.8906C4.35938 32.8906 5.12021 33.0649 5.53233 33.5563C5.57988 33.6038 5.65914 33.7148 5.78594 33.8733C5.48478 33.8099 5.16776 33.9209 4.99341 34.1586L4.66054 34.6024C4.66054 34.6024 5.45308 34.6341 5.94445 35.0463C6.21392 35.2682 7.30762 36.3777 9.73279 37.7726C10.1132 37.8518 10.8582 37.9787 11.4288 38.0738C11.6983 38.3908 11.9043 38.7236 11.936 39.009L14.5831 38.9931C14.6782 38.9931 14.7892 38.9931 14.9001 39.009C16.5962 39.215 17.1509 40.7525 17.1509 40.7525C20.8283 39.7539 23.9509 38.3749 26.4395 36.6155C26.1383 36.7106 25.8213 36.7581 25.4726 36.7898Z" fill="white"/>
</svg>
