<svg width="24" height="17" viewBox="0 0 24 17" fill="none" xmlns="http://www.w3.org/2000/svg">
<path d="M23.4989 2.62499C23.3598 2.11983 23.0945 1.65958 22.7286 1.28873C22.3627 0.917873 21.9086 0.648959 21.4102 0.507976C19.5395 1.45643e-05 12.0107 1.43827e-05 12.0107 1.43827e-05C12.0107 1.43827e-05 4.50089 -0.0101244 2.61119 0.507976C2.11276 0.648959 1.65865 0.917873 1.29275 1.28873C0.92684 1.65958 0.661513 2.11983 0.52241 2.62499C0.167799 4.5661 -0.00702607 6.53656 0.000216073 8.51065C-0.00565698 10.4773 0.169162 12.4402 0.52241 14.374C0.661513 14.8792 0.92684 15.3394 1.29275 15.7103C1.65865 16.0811 2.11276 16.35 2.61119 16.491C4.47988 17 12.0107 17 12.0107 17C12.0107 17 19.5195 17 21.4102 16.491C21.9086 16.35 22.3627 16.0811 22.7286 15.7103C23.0945 15.3394 23.3598 14.8792 23.4989 14.374C23.8448 12.4395 24.0123 10.4766 23.9991 8.51065C24.0136 6.53726 23.8462 4.56681 23.4989 2.62499ZM9.60779 12.1516V4.8586L15.8741 8.51065L9.60779 12.1516Z" fill="white"/>
</svg>
